<svg xmlns="http://www.w3.org/2000/svg" viewBox="0 0 226.87 995.55"><defs><style>.cls-1{fill:#603c8c;}</style></defs><g id="Layer_2" data-name="Layer 2"><g id="Layer_1-2" data-name="Layer 1"><path class="cls-1" d="M209.48,719.31h0V432a28.81,28.81,0,0,0-17.95-54.5L57.2,205.65a28.81,28.81,0,0,0-14.92-37.88q-.95-.41-1.92-.75V55.32a28.86,28.86,0,1,0-21.14.73V167.76a28.82,28.82,0,0,0,0,52.83V568.68a28.79,28.79,0,0,0,0,54.3V995.55H40.36V622.24a28.81,28.81,0,0,0,0-52.83V221.33c.59-.21,1.18-.41,1.75-.66L174,389.45a28.82,28.82,0,0,0,14.3,43.27V718.57A28.8,28.8,0,0,0,187,772.34V987.69h21v-215a28.79,28.79,0,0,0,1.47-53.39Z"/></g></g></svg>